<?xml version="1.0" standalone="no"?>
<!DOCTYPE svg PUBLIC "-//W3C//DTD SVG 20010904//EN"
 "http://www.w3.org/TR/2001/REC-SVG-20010904/DTD/svg10.dtd">
<svg version="1.0" xmlns="http://www.w3.org/2000/svg"
 width="690.000000pt" height="690.000000pt" viewBox="0 0 690.000000 690.000000"
 preserveAspectRatio="xMidYMid meet">
<metadata>
Created by potrace 1.14, written by Peter Selinger 2001-2017
</metadata>
<g transform="translate(0.000000,690.000000) scale(0.100000,-0.100000)"
fill="#000000" stroke="none">
<path d="M100 6865 c-15 -18 -12 -2583 3 -2592 17 -11 598 -11 620 -1 16 8 17
51 17 688 0 374 4 680 8 680 5 0 128 -141 274 -312 147 -172 275 -323 286
-336 11 -13 35 -41 54 -64 18 -23 38 -46 43 -52 6 -6 35 -40 65 -76 30 -35 65
-76 76 -90 91 -106 228 -270 288 -342 39 -48 80 -90 91 -94 26 -10 473 -12
488 -2 14 9 18 2581 4 2595 -11 11 -607 12 -629 1 -16 -8 -17 -55 -15 -703 1
-382 -1 -695 -4 -695 -3 0 -24 23 -48 52 -23 28 -63 76 -90 107 -27 31 -94
110 -151 176 -56 66 -112 131 -123 145 -12 14 -85 99 -162 190 -76 91 -142
167 -145 170 -3 3 -55 64 -115 135 -60 72 -119 141 -131 155 -148 173 -214
248 -229 260 -15 12 -58 15 -242 16 -154 0 -227 -3 -233 -11z"/>
<path d="M2757 6869 c-12 -7 -14 -202 -14 -1293 0 -706 3 -1290 8 -1298 11
-17 635 -20 650 -2 10 13 13 2583 3 2593 -9 9 -631 9 -647 0z"/>
<path d="M105 3987 c-13 -7 -15 -178 -15 -1296 0 -1019 3 -1291 12 -1299 17
-13 609 -13 626 0 9 8 12 158 12 689 0 374 4 679 8 679 5 0 73 -77 153 -171
79 -95 158 -188 175 -208 17 -20 75 -88 129 -151 53 -63 107 -126 119 -140 11
-14 84 -99 161 -190 76 -91 142 -167 145 -170 3 -3 25 -30 50 -60 25 -30 52
-63 61 -73 9 -9 51 -60 95 -111 43 -52 88 -96 99 -99 26 -6 492 -4 498 3 2 3
91 109 198 235 107 127 332 391 499 589 168 197 319 376 335 396 66 80 128
150 135 150 4 0 7 -307 7 -681 0 -534 3 -683 13 -689 17 -11 612 -9 626 2 17
13 16 2574 -1 2591 -17 18 -441 16 -472 -1 -13 -7 -23 -16 -23 -20 0 -4 -10
-18 -22 -32 -20 -22 -77 -88 -165 -190 -11 -14 -169 -198 -349 -410 -180 -212
-355 -417 -388 -456 -34 -39 -79 -92 -101 -119 -22 -27 -45 -53 -51 -59 -6 -6
-101 -118 -213 -250 -111 -131 -209 -245 -217 -254 -9 -8 -22 -25 -30 -37 -33
-51 -45 -42 -200 142 -81 96 -152 180 -158 186 -7 7 -105 122 -220 257 -115
135 -220 259 -235 275 -14 17 -66 77 -115 135 -49 58 -110 130 -136 160 -68
79 -237 277 -290 340 -25 29 -59 69 -76 89 -17 20 -73 84 -123 144 -51 59 -98
108 -104 108 -57 6 -441 2 -452 -4z"/>
<path d="M5321 3988 c-21 -7 -28 -22 -136 -323 -46 -126 -106 -293 -135 -370
-28 -77 -62 -169 -75 -205 -55 -154 -140 -385 -188 -515 -28 -77 -52 -142 -53
-145 0 -3 -3 -12 -7 -20 -3 -8 -51 -141 -107 -295 -56 -154 -119 -327 -141
-385 -99 -270 -117 -323 -113 -335 4 -10 74 -13 317 -13 172 0 322 1 334 4 19
3 32 34 94 227 40 122 77 228 82 235 7 9 102 12 412 12 310 0 405 -3 412 -12
9 -12 33 -76 39 -103 13 -60 109 -343 120 -351 17 -14 656 -16 665 -2 5 8
-107 335 -236 688 -49 136 -336 940 -345 970 -5 14 -31 88 -58 165 -28 77 -97
274 -155 437 -106 298 -122 337 -135 339 -30 5 -577 3 -591 -3z m332 -908 c19
-58 63 -193 97 -300 34 -107 72 -226 84 -265 16 -49 20 -72 12 -77 -13 -9
-460 -8 -474 1 -6 4 26 113 80 271 49 146 94 281 100 300 17 60 61 181 64 177
2 -1 19 -50 37 -107z"/>
<path d="M106 717 c-12 -18 -15 -75 -15 -322 0 -166 4 -307 8 -314 7 -11 376
-13 2072 -13 1813 0 2064 1 2073 15 13 16 15 587 3 623 -4 12 -18 25 -30 28
-12 3 -939 6 -2059 6 l-2038 0 -14 -23z"/>
</g>
</svg>
