<svg xmlns="http://www.w3.org/2000/svg" viewBox="0 0 500 500"><g id="freepik--background-simple--inject-77"><path d="M323.11,394.69c-1.84-5.81-6.89-10.31-12.68-12.21,4.83-2.91,5.21-11,.67-14.31s-12.13-.6-13.47,4.88l-2.53,2.46c-2.16-6.5-10.13-10.38-16.58-8.07s-10.13,10.38-7.66,16.76c-7.65-3.21-17.54,1-20.52,8.75s1.56,17.5,9.39,20.24c-3.77,3.45-2.46,10.19,1.48,13.45s9.46,3.78,14.57,3.49c6.06-.35,12.22-1.73,17.25-5.14s8.77-9.07,8.76-15.14c4,4.6,11.69,5,16.54,1.3S325,400.49,323.11,394.69Z" style="fill:#ebebeb"></path><path d="M440.3,297.49a20,20,0,0,0-16.74-12.05l1,.53a11,11,0,0,0-8.26,1.6,11.22,11.22,0,0,0-3.49,13.86c-5.07,1.34-7.89,7.47-6.54,12.53s6,8.75,11.1,10.05a19.61,19.61,0,0,0,23-26.52Z" style="fill:#ebebeb"></path><path d="M148,68.39c-3.26-8-10.19-14.11-17.95-17.91-3.92-1.91-8.25-3.33-12.59-2.84a11.92,11.92,0,0,0-9.09,5.73c-3.75-3.93-9.57-5.5-15-4.9s-10.74,3.28-15.26,6.59c-6.58,4.83-12.28,11.6-13.46,19.67S68.15,92,76.1,93.84a15.34,15.34,0,0,0-7.25,29.74,15.9,15.9,0,0,0,18.91-9c1.87,5.82,8.72,9.12,14.76,8.1s11-5.57,13.92-11,4-11.56,4.56-17.65c6.27,6,17.34,4.82,23.3-1.44S151.26,76.39,148,68.39Z" style="fill:#ebebeb"></path></g><g id="freepik--Floor--inject-77"><path d="M456.11,471.9c0,.14-92.29.26-206.1.26S43.89,472,43.89,471.9s92.27-.26,206.12-.26S456.11,471.76,456.11,471.9Z" style="fill:#263238"></path></g><g id="freepik--character-1--inject-77"><ellipse cx="163.55" cy="220.96" rx="10.96" ry="11.74" style="fill:#0F773C"></ellipse><path d="M162.68,209.22a11,11,0,0,1-1.21.61,10.14,10.14,0,0,0-2.88,2.21,11.07,11.07,0,0,0-2.37,4.78,12.58,12.58,0,0,0,3.3,12.16,10.05,10.05,0,0,0,4.6,2.67,7.27,7.27,0,0,0,3.59.06c.84-.21,1.26-.46,1.29-.41s-.09.08-.3.2a4.52,4.52,0,0,1-.93.41,7.06,7.06,0,0,1-3.74.1,10.25,10.25,0,0,1-4.85-2.68,12.88,12.88,0,0,1-3.43-12.63,11.18,11.18,0,0,1,2.57-4.91,9.27,9.27,0,0,1,3.07-2.14,6.22,6.22,0,0,1,1-.35A1.12,1.12,0,0,1,162.68,209.22Z" style="fill:#263238"></path><path d="M154,227.05c-.07,0-.16-.22-.12-.6a2,2,0,0,1,.69-1.28,2,2,0,0,1,1.38-.48c.38,0,.58.15.57.21s-.89,0-1.61.66S154.18,227.05,154,227.05Z" style="fill:#263238"></path><path d="M154.5,223.44c-.05-.14.28-.38.76-.39s.83.2.78.34-.38.16-.77.18S154.55,223.57,154.5,223.44Z" style="fill:#263238"></path><path d="M154.5,213.74c-.07-.13.58-.46,1.36-.16s1,1,.89,1-.49-.33-1.08-.55S154.54,213.88,154.5,213.74Z" style="fill:#263238"></path><path d="M191,471.6s2.1-6.84,1.68-9.73-4.31-5.52-4.31-5.52l4.22-109.66s.54-48-24.84-62.87L152.6,280l-37.37-2.21c-1.21.41-45.13,16.92-51.17,23.37L83,397.86S80.69,426.43,78.4,447c-.47,4.19-3.62,24.93-3.62,24.93Z" style="fill:#263238"></path><g style="opacity:0.30000000000000004"><path d="M79.09,440.51c.36,2.67,1.37,5.92,3.93,6.74a16.6,16.6,0,0,0,8,.12c9.36-1.67,18-6.07,26.45-10.42,15.81-8.12,31.77-16.34,45.43-27.73,1.92-1.6,4-4.1,2.79-6.31-1.33-2.5-5.08-1.66-7.65-.47-26.82,12.36-52.12,25.71-78.94,38.07"></path></g><path d="M173.42,286.81s16.73,5.58,22.14,21.08c6,17.12,9.94,50.36,9.94,50.36L189,360.33Z" style="fill:#263238"></path><path d="M64.06,301.16s-9,11.8-13.34,26.14-6.86,55.9-6.86,55.9l45-.63L91.25,346S95.79,285,64.06,301.16Z" style="fill:#263238"></path><path d="M199.6,322.83a5.21,5.21,0,0,0-1.25-1.18,6.16,6.16,0,0,0-4.73-.9c-2.18.32-4.3,2-7.09,3.09a7.93,7.93,0,0,1-4.63.58c-1.65-.36-3.08-1.54-4.58-2.68a12.16,12.16,0,0,0-2.5-1.57,4,4,0,0,0-3.11-.14,5.28,5.28,0,0,0-2.42,2.16c-.62.9-1.12,1.89-1.77,2.77a4.9,4.9,0,0,1-2.54,2,5.93,5.93,0,0,1-3.34,0,12.79,12.79,0,0,1-3.26-1.4c-1-.61-2-1.36-3.11-2a14.77,14.77,0,0,0-3.48-1.69,6.47,6.47,0,0,0-4,0,10.53,10.53,0,0,0-3.46,2.11c-1,.88-2,1.83-3.05,2.66a7.74,7.74,0,0,1-3.56,1.75,7.41,7.41,0,0,1-4-.42c-2.6-1-4.9-2.74-7.46-4.15a14.09,14.09,0,0,0-4.07-1.62,7.88,7.88,0,0,0-4.33.34c-2.73,1.06-4.75,3.12-7.17,4.27a8.64,8.64,0,0,1-1.86.67,7.45,7.45,0,0,1-1.94.12,10.65,10.65,0,0,1-3.73-1.07c-2.37-1.07-4.51-2.57-7-3.37a7.6,7.6,0,0,0-3.78-.34,7.18,7.18,0,0,0-3.29,1.68c-1.83,1.54-3.27,3.48-5.37,4.14a6.35,6.35,0,0,1-3.15.08,21.77,21.77,0,0,1-3-.9c-1.93-.67-4-1.37-5.91-.93a6.08,6.08,0,0,0-2.54,1.26c-.73.56-1.37,1.17-2,1.73a10.61,10.61,0,0,1-2,1.45,6.8,6.8,0,0,1-2.17.7,9,9,0,0,1-4.09-.42,12.26,12.26,0,0,1-3.11-1.59,28,28,0,0,1-3.68-3.18l-.9-.9a2.12,2.12,0,0,0-.32-.3,3.12,3.12,0,0,0,.28.33l.86.94a25.58,25.58,0,0,0,3.65,3.28,12.37,12.37,0,0,0,3.14,1.66,9.33,9.33,0,0,0,4.21.47,6.9,6.9,0,0,0,2.27-.72,10.59,10.59,0,0,0,2-1.47c1.29-1.1,2.57-2.5,4.41-2.88s3.76.26,5.69,1a22.67,22.67,0,0,0,3.06.93,6.65,6.65,0,0,0,3.37-.08,8.15,8.15,0,0,0,3-1.82c.88-.77,1.68-1.63,2.59-2.38a6.66,6.66,0,0,1,3.08-1.57,7.16,7.16,0,0,1,3.54.33c2.35.78,4.49,2.27,6.91,3.38a11.34,11.34,0,0,0,3.89,1.11,7.65,7.65,0,0,0,2.08-.13,8.64,8.64,0,0,0,2-.7c2.52-1.21,4.54-3.25,7.13-4.25a7.44,7.44,0,0,1,4-.31,13.2,13.2,0,0,1,3.92,1.57c2.52,1.38,4.82,3.16,7.53,4.18a7.85,7.85,0,0,0,4.26.43,8.19,8.19,0,0,0,3.78-1.85c2.17-1.69,3.91-3.89,6.36-4.7a6,6,0,0,1,3.69,0,14.27,14.27,0,0,1,3.36,1.62c1.07.66,2.06,1.39,3.14,2a13.36,13.36,0,0,0,3.37,1.45,6.39,6.39,0,0,0,3.6,0,5.34,5.34,0,0,0,2.75-2.13c.67-.92,1.17-1.91,1.76-2.79a5,5,0,0,1,2.22-2,3.63,3.63,0,0,1,2.82.11A12.66,12.66,0,0,1,177.1,322c1.5,1.13,3,2.34,4.72,2.71a8.23,8.23,0,0,0,4.82-.63c2.83-1.11,4.91-2.83,7-3.17a6.13,6.13,0,0,1,4.64.8A12.31,12.31,0,0,1,199.6,322.83Z" style="fill:#fafafa"></path><path d="M204.9,349.86a2.43,2.43,0,0,0-.44,0l-1.3.13a11.11,11.11,0,0,1-4.91-.12c-1.06-.24-2.26-.45-3.56-.67s-2.69-.55-4.23-.73a11.74,11.74,0,0,0-5,.36c-1.7.5-3.35,1.37-5.17,2a9.94,9.94,0,0,1-5.88.17c-2-.48-4-1.42-6.21-2.17a11.58,11.58,0,0,0-7-.68c-2.43.68-4.38,2.46-6.8,3.06a6,6,0,0,1-1.84.13,9.38,9.38,0,0,1-1.85-.44c-1.22-.43-2.4-1.05-3.69-1.5a5.89,5.89,0,0,0-4.14-.14,15,15,0,0,0-3.5,2.33,8.39,8.39,0,0,1-1.74,1,5.06,5.06,0,0,1-2,.37,10.62,10.62,0,0,1-4-1.19,23.65,23.65,0,0,0-4.08-1.64,6.65,6.65,0,0,0-2.27-.16,6.35,6.35,0,0,0-2.18.71,40,40,0,0,0-3.66,2.52,9.34,9.34,0,0,1-1.86,1,3.81,3.81,0,0,1-1,.28l-.51.09-.52,0a11.16,11.16,0,0,1-4.08-.85c-1.32-.48-2.62-1-4-1.45a8,8,0,0,0-4.22-.3,7.68,7.68,0,0,0-3.55,2.13,27.42,27.42,0,0,1-2.92,2.64,5.47,5.47,0,0,1-3.52,1,9.57,9.57,0,0,1-3.52-1.06c-1.11-.54-2.16-1.18-3.23-1.77-2.1-1.16-4.41-2.24-6.8-2a12.89,12.89,0,0,0-6,2.81,33.56,33.56,0,0,1-5,3.36,14.68,14.68,0,0,1-5.24,1.43,18.63,18.63,0,0,1-4.86-.38,17.38,17.38,0,0,1-7-3.41,15.63,15.63,0,0,1-3.26-3.72c-.28-.49-.47-.88-.61-1.14a2.09,2.09,0,0,0-.22-.38,2.63,2.63,0,0,0,.17.4c.13.27.3.67.57,1.17A15.09,15.09,0,0,0,51.59,357a17.44,17.44,0,0,0,7,3.53,18.69,18.69,0,0,0,4.94.43A15,15,0,0,0,69,359.54a33.69,33.69,0,0,0,5.09-3.37,12.66,12.66,0,0,1,5.81-2.7c2.24-.26,4.45.77,6.54,1.93,1,.59,2.11,1.23,3.25,1.79a10,10,0,0,0,3.69,1.12,6,6,0,0,0,3.82-1.07,27.41,27.41,0,0,0,3-2.69,7.22,7.22,0,0,1,3.33-2,7.55,7.55,0,0,1,4,.3c1.32.39,2.61.95,3.95,1.44a11.71,11.71,0,0,0,4.26.89l.57,0,.55-.1a5,5,0,0,0,1.09-.3,9.58,9.58,0,0,0,2-1.08,39.94,39.94,0,0,1,3.61-2.48,5.8,5.8,0,0,1,2-.65,6.16,6.16,0,0,1,2.09.15,22.22,22.22,0,0,1,4,1.6,11.23,11.23,0,0,0,4.19,1.23,5.37,5.37,0,0,0,2.17-.41,8.53,8.53,0,0,0,1.84-1.12,15,15,0,0,1,3.37-2.25,5.39,5.39,0,0,1,3.81.13c1.24.43,2.43,1.05,3.69,1.49a9.32,9.32,0,0,0,2,.46,6.11,6.11,0,0,0,2-.15c2.59-.66,4.52-2.45,6.81-3.08a11.29,11.29,0,0,1,6.78.65c2.15.73,4.16,1.67,6.26,2.15a10.32,10.32,0,0,0,6.09-.21c1.86-.64,3.49-1.51,5.15-2a11.42,11.42,0,0,1,4.81-.39c1.53.17,2.93.47,4.23.68s2.49.41,3.55.62c.54.11,1,.23,1.52.29a5.17,5.17,0,0,0,1.36,0c.83-.09,1.53-.19,2.1-.26l1.28-.19A2.28,2.28,0,0,0,204.9,349.86Z" style="fill:#fafafa"></path><path d="M188.25,373.45a1,1,0,0,0-.3,0l-.87.08c-.76.09-1.88.23-3.32.45-2.89.4-7,1.26-12.21,1.68a42.6,42.6,0,0,1-8.47-.15,20.13,20.13,0,0,0-4.79,0,8.57,8.57,0,0,0-2.43.72,11.18,11.18,0,0,0-2.18,1.42c-1.36,1.05-2.65,2.32-4.32,2.82a4.43,4.43,0,0,1-2.55,0,17.56,17.56,0,0,1-2.54-1,9.6,9.6,0,0,0-2.75-.93,4.3,4.3,0,0,0-2.92.63c-1.73,1.05-2.86,2.8-4.62,3.55s-3.77.29-5.58-.25a21.67,21.67,0,0,0-5.62-1.3,6.44,6.44,0,0,0-2.81.58,10.44,10.44,0,0,0-2.31,1.57,19.75,19.75,0,0,1-4.12,3.17,6.23,6.23,0,0,1-4.74,0c-1.54-.48-3-1.22-4.49-1.57a6.52,6.52,0,0,0-4.47.33,3.63,3.63,0,0,0-1.53,1.55,14.2,14.2,0,0,0-.7,1.9,4.25,4.25,0,0,1-.86,1.6,3.49,3.49,0,0,1-1.43.92,5.27,5.27,0,0,1-3.17,0,5.48,5.48,0,0,1-2.37-1.46,9.32,9.32,0,0,1-1.45-1.9,21,21,0,0,1-1.4-3c-.14-.33-.24-.6-.32-.81a1.53,1.53,0,0,0-.13-.27,1.33,1.33,0,0,0,.08.29l.27.83a19.61,19.61,0,0,0,1.33,3.09,9.12,9.12,0,0,0,1.44,2,5.8,5.8,0,0,0,2.46,1.57,5.64,5.64,0,0,0,3.36.06,3.92,3.92,0,0,0,1.59-1,4.57,4.57,0,0,0,.95-1.71,13.94,13.94,0,0,1,.69-1.84,3.28,3.28,0,0,1,1.38-1.38,6.19,6.19,0,0,1,4.18-.26c1.46.33,2.88,1.09,4.45,1.59a9.25,9.25,0,0,0,2.49.5,5.72,5.72,0,0,0,2.59-.51,19.82,19.82,0,0,0,4.24-3.23,9.8,9.8,0,0,1,2.2-1.49,5.87,5.87,0,0,1,2.59-.53,21.25,21.25,0,0,1,5.48,1.29,15.25,15.25,0,0,0,2.9.63,6,6,0,0,0,3-.4c1.95-.85,3.09-2.63,4.69-3.58a3.83,3.83,0,0,1,2.59-.57,9.4,9.4,0,0,1,2.6.88,18.52,18.52,0,0,0,2.61,1.06,5,5,0,0,0,2.83,0c1.84-.57,3.14-1.89,4.48-2.93a11.85,11.85,0,0,1,2.08-1.37,8.14,8.14,0,0,1,2.3-.69,20.33,20.33,0,0,1,4.68,0,43.05,43.05,0,0,0,8.54.09c5.21-.48,9.34-1.39,12.21-1.85l3.31-.54.86-.14Z" style="fill:#fafafa"></path><path d="M189.65,440.14l-.3-.12-.87-.31c-.77-.27-1.91-.68-3.38-1.16a25.94,25.94,0,0,0-5.52-1.28,8,8,0,0,0-3.52.58,16.6,16.6,0,0,1-3.75,1.07,8.23,8.23,0,0,1-4.1-.93,24,24,0,0,0-4.41-1.77,11,11,0,0,0-5.1.3c-1.69.45-3.36,1.12-5.1,1.63a11.11,11.11,0,0,1-5.43.47,34.79,34.79,0,0,1-5.42-2.11,9,9,0,0,0-3-.71,5.43,5.43,0,0,0-3.06.8c-1.83,1.09-3.14,2.86-5.05,3.57a5.06,5.06,0,0,1-3,.07,17.1,17.1,0,0,1-2.86-1.08,22.45,22.45,0,0,0-2.88-1.15,5.52,5.52,0,0,0-3.12-.06,6,6,0,0,0-2.54,1.69c-.7.7-1.32,1.44-2,2.05a5.58,5.58,0,0,1-5.08,1.06c-1.77-.35-3.44-1-5.13-1.48a10,10,0,0,0-2.59-.39,4.78,4.78,0,0,0-2.49.6,5,5,0,0,0-1.81,1.69c-.46.66-.82,1.35-1.19,2A5.62,5.62,0,0,1,94,448.08a5,5,0,0,1-3.7-.38,8.66,8.66,0,0,1-2.73-2.09,25.71,25.71,0,0,1-2.89-4.8,19.77,19.77,0,0,0-1.88-3,7.58,7.58,0,0,0-.85-.92s.28.33.76,1a22.71,22.71,0,0,1,1.79,3.07,24.92,24.92,0,0,0,2.85,4.9,8.94,8.94,0,0,0,2.81,2.2,5.31,5.31,0,0,0,4,.43,6,6,0,0,0,3.14-3.06c.76-1.29,1.45-2.79,2.86-3.51s3.12-.58,4.75-.15,3.32,1.14,5.15,1.51a7.56,7.56,0,0,0,2.85.11,5.56,5.56,0,0,0,1.42-.44,6.5,6.5,0,0,0,1.24-.82c.75-.64,1.38-1.4,2.06-2.08a5.59,5.59,0,0,1,2.34-1.55,5,5,0,0,1,2.83.07,21.35,21.35,0,0,1,2.81,1.12,17.63,17.63,0,0,0,3,1.12,5.55,5.55,0,0,0,3.25-.09c2.12-.81,3.42-2.61,5.14-3.61a4.93,4.93,0,0,1,2.78-.74,8.54,8.54,0,0,1,2.84.67,35.06,35.06,0,0,0,5.51,2.13,11.57,11.57,0,0,0,5.66-.5c1.78-.53,3.43-1.2,5.09-1.65a10.37,10.37,0,0,1,4.89-.31,23.19,23.19,0,0,1,4.34,1.71,8.46,8.46,0,0,0,4.3.92,16.27,16.27,0,0,0,3.82-1.12,7.72,7.72,0,0,1,3.39-.6,26.07,26.07,0,0,1,5.48,1.19l3.4,1.06.9.26Z" style="fill:#fafafa"></path><path d="M133.47,415.37a3.75,3.75,0,0,0,.57.36,12.94,12.94,0,0,0,1.76.81,14.63,14.63,0,0,0,7.06.72,15,15,0,0,0,2.31-.54c.79-.25,1.58-.61,2.38-.94a4.46,4.46,0,0,1,5.06.56c.79.56,1.56,1.23,2.47,1.78a6,6,0,0,0,1.5.66,3.88,3.88,0,0,0,.83.13,4,4,0,0,0,.85,0c2.29-.29,4.1-1.8,6.09-2.81a5.56,5.56,0,0,1,3.09-.79l.38,0,.36.12a3,3,0,0,1,.7.32,6.31,6.31,0,0,1,1.17,1,21.87,21.87,0,0,0,2.2,2.33,3.25,3.25,0,0,0,1.49.69,2.81,2.81,0,0,0,1.6-.24,5.93,5.93,0,0,0,2.12-2.1,22.56,22.56,0,0,1,1.59-2.17,5.54,5.54,0,0,1,4.25-1.7,6.48,6.48,0,0,1,3.6,1.45,8.58,8.58,0,0,1,2.07,2.15,4.55,4.55,0,0,1,.81,2.4,2,2,0,0,0,0-.68,4.48,4.48,0,0,0-.66-1.83,8.56,8.56,0,0,0-2.08-2.27,6.58,6.58,0,0,0-3.75-1.58,5.91,5.91,0,0,0-4.59,1.76,21.52,21.52,0,0,0-1.65,2.21,5.52,5.52,0,0,1-1.94,1.93,2.42,2.42,0,0,1-2.59-.41,22.64,22.64,0,0,1-2.13-2.29,6.49,6.49,0,0,0-1.27-1.11,2.91,2.91,0,0,0-.8-.37,3,3,0,0,0-.42-.14l-.44-.06a5.91,5.91,0,0,0-3.37.84c-2.05,1.05-3.85,2.5-5.92,2.76a4.36,4.36,0,0,1-2.86-.68c-.86-.52-1.64-1.18-2.46-1.76a4.88,4.88,0,0,0-5.49-.56c-.82.35-1.58.71-2.34,1a15.4,15.4,0,0,1-2.25.56,14.75,14.75,0,0,1-6.93-.55C134.29,415.82,133.5,415.31,133.47,415.37Z" style="fill:#fafafa"></path><path d="M188.67,466.85a1.13,1.13,0,0,0-.3.09l-.37.11-.52.08a6.27,6.27,0,0,1-3.34-.81,25.41,25.41,0,0,0-5.13-2.26,5.52,5.52,0,0,0-1.73-.08,5.39,5.39,0,0,0-1.75.58,26.07,26.07,0,0,0-3.22,2.25,5.65,5.65,0,0,1-3.84,1.36,13.76,13.76,0,0,1-4.29-1.55,10.24,10.24,0,0,0-2.38-.79,7.11,7.11,0,0,0-2.6.06c-1.73.32-3.37,1.06-5.09,1.53a10.57,10.57,0,0,1-5.39.08,38.46,38.46,0,0,1-5.47-1.81,24.73,24.73,0,0,0-5.82-1.67,11.08,11.08,0,0,0-6.17,1c-1.94.84-3.71,1.93-5.58,2.68a8.7,8.7,0,0,1-5.71.53c-3.73-1.07-6.46-4.1-10-5.27a8.31,8.31,0,0,0-5.35,0,18.71,18.71,0,0,0-4.47,2.32c-1.35.88-2.62,1.79-3.91,2.52A13.68,13.68,0,0,1,85.07,469a15,15,0,0,1-4.9-2.51A15.1,15.1,0,0,1,77,463a1.78,1.78,0,0,0,.15.27l.49.78a13.28,13.28,0,0,0,2.44,2.57,14.31,14.31,0,0,0,16.38,1.44c1.32-.74,2.59-1.64,3.94-2.51a18.1,18.1,0,0,1,4.38-2.24,7.77,7.77,0,0,1,5.06.05,21.79,21.79,0,0,1,4.81,2.62,19.22,19.22,0,0,0,5.22,2.68,9.2,9.2,0,0,0,6-.54c1.92-.78,3.69-1.86,5.59-2.68a10.53,10.53,0,0,1,5.9-.94,24.34,24.34,0,0,1,5.7,1.64,37.88,37.88,0,0,0,5.55,1.82,11,11,0,0,0,5.62-.11c1.77-.49,3.39-1.23,5-1.54a6.93,6.93,0,0,1,2.44-.07A10,10,0,0,1,164,467a14.08,14.08,0,0,0,4.44,1.55,6,6,0,0,0,4.09-1.46,26.66,26.66,0,0,1,3.15-2.26,5.43,5.43,0,0,1,1.64-.57,5.52,5.52,0,0,1,1.63.07,25.63,25.63,0,0,1,5.1,2.15,6.2,6.2,0,0,0,3.44.73,4.6,4.6,0,0,0,.53-.1l.36-.14A1.11,1.11,0,0,0,188.67,466.85Z" style="fill:#fafafa"></path><path d="M186.2,294.91s-.3.36-1,.9a8.17,8.17,0,0,1-3.44,1.51,20.11,20.11,0,0,1-6,.11c-1.17-.09-2.43-.21-3.78-.19a11.73,11.73,0,0,0-4.2.75,39.18,39.18,0,0,0-4.14,2.17,13.51,13.51,0,0,1-2.23,1,9.19,9.19,0,0,1-2.47.41,24.73,24.73,0,0,1-5.31-.61,19.26,19.26,0,0,0-5.77-.43,14.07,14.07,0,0,0-5.61,2.32,15.34,15.34,0,0,1-5.6,2.49,8.56,8.56,0,0,1-3.1-.21,19.49,19.49,0,0,1-3-1.13,38.26,38.26,0,0,0-6.2-2.64,8.73,8.73,0,0,0-3.45-.21,9.9,9.9,0,0,0-3.19,1.19c-1.94,1.1-3.61,2.53-5.52,3.41a10.24,10.24,0,0,1-6,.74,37.81,37.81,0,0,1-5.79-1.5,33.44,33.44,0,0,0-5.61-1.36,15.38,15.38,0,0,0-5.44.34,68.34,68.34,0,0,0-9.12,3.37,15.23,15.23,0,0,1-7.74,1.23,18.38,18.38,0,0,1-5.8-1.45,11.26,11.26,0,0,1-4.1-3,6.08,6.08,0,0,0,.86,1,10.74,10.74,0,0,0,3.16,2.16,18.14,18.14,0,0,0,5.85,1.56,16.71,16.71,0,0,0,3.8,0,16.13,16.13,0,0,0,4.11-1.14,69.23,69.23,0,0,1,9.08-3.3,15,15,0,0,1,5.29-.3,32,32,0,0,1,5.52,1.36,38.26,38.26,0,0,0,5.85,1.53,10.79,10.79,0,0,0,6.29-.77c2-.92,3.66-2.35,5.56-3.42a9.11,9.11,0,0,1,3-1.12,8.22,8.22,0,0,1,3.23.19,37.8,37.8,0,0,1,6.11,2.61,19.16,19.16,0,0,0,3.12,1.16,9.18,9.18,0,0,0,3.3.22,15.6,15.6,0,0,0,5.79-2.58A13.8,13.8,0,0,1,148,301c3.85-.42,7.47,1.18,11,1a10.1,10.1,0,0,0,2.58-.44,14,14,0,0,0,2.29-1,40.08,40.08,0,0,1,4.08-2.19c2.74-1.09,5.51-.74,7.83-.61a19.88,19.88,0,0,0,6.05-.2,8.07,8.07,0,0,0,3.46-1.62A4.57,4.57,0,0,0,186.2,294.91Z" style="fill:#fafafa"></path><path d="M185.52,458.34a3,3,0,0,0-.54.07l-1.52.27-5.58,1.07c-4.71.88-11.23,2-18.48,3s-13.83,1.7-18.6,2.13l-5.66.51-1.54.15a.27.27,0,1,0,0,.1l1.55-.05c1.34-.05,3.27-.17,5.67-.34,4.78-.34,11.39-1,18.64-2s13.78-2.21,18.48-3.18c2.35-.49,4.25-.91,5.55-1.23l1.5-.37A2,2,0,0,0,185.52,458.34Z" style="fill:#263238"></path><path d="M163.54,455.74a4.69,4.69,0,0,0-.83.17c-.54.12-1.32.38-2.36.58a50.42,50.42,0,0,1-21.94-.08,47.31,47.31,0,0,1-26.89-16.78,49.83,49.83,0,0,1-6.85-11.25,49,49,0,0,1-2.85-8.44c-.28-1-.39-1.83-.53-2.37a4.49,4.49,0,0,0-.2-.82,5.27,5.27,0,0,0,.1.84c.1.55.18,1.37.43,2.4a46,46,0,0,0,2.71,8.53A48.45,48.45,0,0,0,151.54,458a45.36,45.36,0,0,0,8.86-1.31c1-.22,1.81-.51,2.34-.66A6.59,6.59,0,0,0,163.54,455.74Z" style="fill:#263238"></path><path d="M154.68,280a4,4,0,0,0,0,.72c0,.52,0,1.21,0,2.06a29.79,29.79,0,0,1-.76,7.49,12.83,12.83,0,0,1-6.63,8.46,23.1,23.1,0,0,1-6.18,2.21,29.41,29.41,0,0,1-7,.68,25.72,25.72,0,0,1-13-3.68,20.46,20.46,0,0,1-7.46-8.09,18.22,18.22,0,0,1-1.94-7.21c-.07-1.79.12-2.77,0-2.78a5.15,5.15,0,0,0-.13.71,13.38,13.38,0,0,0-.12,2.07A17.54,17.54,0,0,0,113.3,290a20.56,20.56,0,0,0,7.54,8.33,25.91,25.91,0,0,0,13.23,3.79,29.89,29.89,0,0,0,7.14-.7,23.36,23.36,0,0,0,6.3-2.29,13.18,13.18,0,0,0,6.76-8.78,28.55,28.55,0,0,0,.61-7.59c0-.9-.08-1.59-.12-2.06A3.08,3.08,0,0,0,154.68,280Z" style="fill:#263238"></path><path d="M134.87,299.9h0a20.06,20.06,0,0,0,18.44-21c-.38-7.6-.78-14.45-.78-14.45s16.3-2.53,16.5-18.82S166.4,192,166.4,192h0a56.61,56.61,0,0,0-56.88,7.15L107.11,201l6.17,80.48A20.06,20.06,0,0,0,134.87,299.9Z" style="fill:#ffbe9d"></path><path d="M152.56,264.23a37.92,37.92,0,0,1-21.23-6s5,11.72,21.27,10.26Z" style="fill:#eb996e"></path><path d="M154.36,217.66c.28-.32,2.1.9,4.6.76s4.27-1.48,4.56-1.19c.14.13-.13.69-.9,1.32a6.33,6.33,0,0,1-3.62,1.32,6.12,6.12,0,0,1-3.68-1C154.52,218.34,154.23,217.8,154.36,217.66Z" style="fill:#263238"></path><path d="M129.69,218.21c.29-.31,2.05,1,4.55,1s4.35-1.22,4.62-.91c.13.13-.17.68-1,1.25a6.33,6.33,0,0,1-3.7,1.11,6.15,6.15,0,0,1-3.61-1.2C129.81,218.89,129.55,218.34,129.69,218.21Z" style="fill:#263238"></path><path d="M147.8,233.89c0-.14,1.55-.41,4.07-.73.64-.07,1.24-.19,1.35-.63a3.25,3.25,0,0,0-.43-1.89l-1.89-4.87c-2.62-6.93-4.52-12.63-4.24-12.73s2.63,5.43,5.26,12.36l1.81,4.89a3.69,3.69,0,0,1,.33,2.51,1.6,1.6,0,0,1-1.05.94,4.64,4.64,0,0,1-1.09.15C149.39,234,147.81,234,147.8,233.89Z" style="fill:#263238"></path><path d="M140.44,235.62c.4,0,.41,2.7,2.73,4.63s5.22,1.63,5.24,2c0,.17-.64.52-1.87.56a6.78,6.78,0,0,1-4.37-1.53,5.87,5.87,0,0,1-2.12-3.87C140,236.28,140.25,235.61,140.44,235.62Z" style="fill:#263238"></path><path d="M139.36,205.52c-.24.68-2.74.36-5.68.71s-5.31,1.16-5.7.55c-.17-.3.24-.94,1.2-1.59a10,10,0,0,1,8.67-1C138.93,204.66,139.47,205.2,139.36,205.52Z" style="fill:#263238"></path><path d="M162.4,207.62c-.44.57-2.16,0-4.24-.05s-3.83.38-4.23-.21c-.18-.29.1-.86.87-1.4a6.14,6.14,0,0,1,6.82.21C162.36,206.76,162.6,207.34,162.4,207.62Z" style="fill:#263238"></path><path d="M109.12,217.83c-.28-.12-11.2-3.31-10.84,7.82s11.46,8.49,11.47,8.17S109.12,217.83,109.12,217.83Z" style="fill:#ffbe9d"></path><path d="M106.21,229.71s-.19.14-.51.3a1.92,1.92,0,0,1-1.45.07c-1.19-.39-2.24-2.23-2.36-4.23a6.5,6.5,0,0,1,.46-2.8,2.22,2.22,0,0,1,1.41-1.53,1,1,0,0,1,1.16.49c.16.31.1.54.16.55s.23-.19.13-.65a1.29,1.29,0,0,0-.46-.68,1.48,1.48,0,0,0-1.09-.25,2.73,2.73,0,0,0-2,1.79,6.6,6.6,0,0,0-.57,3.12c.14,2.25,1.36,4.31,3,4.72a2.07,2.07,0,0,0,1.77-.35C106.2,230,106.25,229.73,106.21,229.71Z" style="fill:#eb996e"></path><path d="M172.64,177.88a17.22,17.22,0,0,0-26.75-5.15,17.17,17.17,0,0,0-12.9-9.15c-.34-.05-.68-.08-1-.1a14.69,14.69,0,0,0-15.07,11.86l-.8,3.87s-13.77,4.68-17,7.24a12.29,12.29,0,0,0,4.39,21.43c-3.5,6.3-.22,15.34,6.5,17.94l1.62-.68A23.18,23.18,0,0,0,115,199.57c.2,0,.39,0,.59,0a13,13,0,0,0,16.94-3.88,14.44,14.44,0,0,0,15.52.65,6.11,6.11,0,0,1,2.34-1.06,5.55,5.55,0,0,1,2.92.87,13.7,13.7,0,0,0,7.88,1.6,7.62,7.62,0,0,0,5.92-4.24l.19,0a8.78,8.78,0,0,0,6.52-6.32A13,13,0,0,0,172.64,177.88Z" style="fill:#263238"></path><path d="M101.22,216.23s-7.19-31.85,11.83-37h3s-14.71,7.73-10.1,34.27" style="fill:#0F773C"></path><ellipse cx="103.67" cy="223.52" rx="10.96" ry="11.74" style="fill:#0F773C"></ellipse><path d="M104.53,211.78s.13,0,.35.07a8.61,8.61,0,0,1,1,.36,9.22,9.22,0,0,1,3.07,2.14,11.17,11.17,0,0,1,2.57,4.91A12.83,12.83,0,0,1,108,231.88a10.16,10.16,0,0,1-4.85,2.68,7,7,0,0,1-3.73-.1,4.36,4.36,0,0,1-.94-.41c-.2-.11-.3-.18-.29-.2s.45.2,1.28.42a7.31,7.31,0,0,0,3.6-.06,10.19,10.19,0,0,0,4.6-2.67A12.65,12.65,0,0,0,111,225.9a12.43,12.43,0,0,0,0-6.52,10.91,10.91,0,0,0-2.38-4.78,9.65,9.65,0,0,0-2.88-2.21C105,212,104.52,211.82,104.53,211.78Z" style="fill:#263238"></path><path d="M113.18,229.6c-.14,0-.19-.87-.91-1.48s-1.59-.52-1.61-.66.19-.2.57-.22A2,2,0,0,1,113.3,229C113.34,229.38,113.24,229.61,113.18,229.6Z" style="fill:#263238"></path><path d="M112.72,226c0,.14-.39.14-.78.13s-.72,0-.77-.18.31-.35.79-.34S112.77,225.86,112.72,226Z" style="fill:#263238"></path><path d="M112.72,216.29c0,.14-.59.09-1.17.33s-1,.63-1.08.55.11-.74.89-1S112.79,216.17,112.72,216.29Z" style="fill:#263238"></path><path d="M128,167c0,.08-1.34.05-3.49.16a18.29,18.29,0,0,0-3.69.57,9.45,9.45,0,0,0-3.93,2.13,6.19,6.19,0,0,0-2,3.87,7.66,7.66,0,0,0,.57,3.6,33.87,33.87,0,0,0,1.6,3.07,3.07,3.07,0,0,1-.63-.7,12.13,12.13,0,0,1-1.31-2.23,7.7,7.7,0,0,1-.7-3.79,6.46,6.46,0,0,1,2.15-4.2,9.63,9.63,0,0,1,4.17-2.21,16.43,16.43,0,0,1,3.8-.48c1.09,0,2,0,2.56.08A3.16,3.16,0,0,1,128,167Z" style="fill:#263238"></path><path d="M114.37,166.37c.07,0-.43.74-.9,2a9.49,9.49,0,0,0,1.75,9.72c.88,1,1.59,1.47,1.54,1.55a4.84,4.84,0,0,1-1.81-1.3,9.17,9.17,0,0,1-2.48-4.77,9,9,0,0,1,.66-5.34A4.68,4.68,0,0,1,114.37,166.37Z" style="fill:#263238"></path><path d="M162.58,180.15a1.2,1.2,0,0,1-.06.38,7,7,0,0,1-.36,1.07,9.74,9.74,0,0,1-2.41,3.39,9.49,9.49,0,0,1-5.67,2.51,10.1,10.1,0,0,1-7.32-2.29l.38-.05a11.74,11.74,0,0,1-9.61,5A11.18,11.18,0,0,1,130.9,188a11.39,11.39,0,0,1-3.17-3.51,8.75,8.75,0,0,1-.56-1.17,1.33,1.33,0,0,1-.13-.43s.27.56.86,1.49a12,12,0,0,0,3.21,3.32,11,11,0,0,0,6.42,2,11.52,11.52,0,0,0,7.6-3,11.08,11.08,0,0,0,1.58-1.81l.17-.23.21.18a9.77,9.77,0,0,0,7,2.22,9.33,9.33,0,0,0,5.47-2.31,10.22,10.22,0,0,0,2.46-3.21C162.4,180.65,162.54,180.14,162.58,180.15Z" style="fill:#455a64"></path><path d="M163.68,191.6s-.39.64-1.37,1.31a8.2,8.2,0,0,1-8.83.24,3.92,3.92,0,0,1-1.44-1.24c.06-.07.6.4,1.62.92a9.06,9.06,0,0,0,4.26,1,8.89,8.89,0,0,0,4.19-1.2C163.1,192,163.62,191.53,163.68,191.6Z" style="fill:#455a64"></path><path d="M164.27,258.19a2.13,2.13,0,0,1,.11.41c.06.28.13.69.2,1.23.15,1.09.3,2.7.46,4.77.29,4.15.62,10.16.61,17.6a52,52,0,0,1-1.09,12.13,19,19,0,0,1-2.68,6.26,16.65,16.65,0,0,1-5.36,4.84,36.43,36.43,0,0,1-14.75,4.45,40.22,40.22,0,0,1-16.49-1.29,23.92,23.92,0,0,1-7.51-3.87,21.58,21.58,0,0,1-5.41-6.16c-2.75-4.69-3.87-9.87-4.62-14.72s-1.17-9.52-1.7-13.86-1-8.38-1.39-12.07c-.83-7.37-1.51-13.34-2-17.5-.22-2-.39-3.64-.51-4.76l-.12-1.24c0-.27,0-.42,0-.42a2,2,0,0,1,.08.42c0,.3.1.71.17,1.23.15,1.11.35,2.71.61,4.75.51,4.15,1.24,10.11,2.15,17.47.44,3.7.93,7.74,1.45,12.07s1,9,1.74,13.84,1.89,9.94,4.59,14.53a21,21,0,0,0,5.29,6,23.09,23.09,0,0,0,7.35,3.78,39.79,39.79,0,0,0,16.27,1.28c5.28-.58,10.37-1.85,14.56-4.35a16.12,16.12,0,0,0,5.23-4.69,18.72,18.72,0,0,0,2.65-6.1,52.64,52.64,0,0,0,1.13-12c.06-7.43-.22-13.44-.45-17.59-.12-2.07-.24-3.68-.35-4.77,0-.54-.11-.95-.15-1.23A2.16,2.16,0,0,1,164.27,258.19Z" style="fill:#0F773C"></path><path d="M183.92,404.56s0,.2-.08.58-.15,1-.26,1.72c-.24,1.53-.6,3.75-1.06,6.6-1,5.74-2.32,14-4,24.24-.43,2.55-.89,5.24-1.6,8a34.57,34.57,0,0,1-3.17,8.27,21.21,21.21,0,0,1-6.3,7.08,13.68,13.68,0,0,1-9.63,2.48,11.11,11.11,0,0,1-8.68-5.63,14.62,14.62,0,0,1-1.4-5.32c-.17-1.84-.2-3.69-.29-5.55-.31-7.46-.64-15.18-1-23.08-1.29-31.63-2.45-60.26-3.3-81-.39-10.35-.72-18.73-.94-24.55-.1-2.88-.17-5.13-.23-6.67,0-.75,0-1.33,0-1.74s0-.59,0-.59,0,.2.05.59,0,1,.1,1.73c.07,1.55.18,3.79.32,6.67.27,5.82.64,14.2,1.11,24.54.88,20.75,2.1,49.37,3.45,81,.33,7.9.65,15.62,1,23.08.09,1.86.12,3.71.29,5.52a14.15,14.15,0,0,0,1.33,5.14,10.67,10.67,0,0,0,8.3,5.39,13.26,13.26,0,0,0,9.32-2.39,20.76,20.76,0,0,0,6.17-6.92c3-5.31,3.88-11,4.78-16.11,1.76-10.2,3.18-18.47,4.17-24.21l1.16-6.58c.13-.73.24-1.3.31-1.71S183.92,404.56,183.92,404.56Z" style="fill:#0F773C"></path><polygon points="180.59 371.45 192.12 350.17 227.22 350.17 228.34 352.28 198.62 401.68 164.99 403.3 180.59 371.45" style="fill:#0F773C"></polygon><polygon points="180.59 371.45 192.12 350.17 227.22 350.17 228.34 352.28 198.62 401.68 164.99 403.3 180.59 371.45" style="opacity:0.4"></polygon><polygon points="181.7 373.57 193.24 352.28 228.34 352.28 199.74 403.79 166.1 405.42 181.7 373.57" style="fill:#0F773C"></polygon><path d="M210.52,361.22a1.77,1.77,0,1,1,.27-2.48A1.77,1.77,0,0,1,210.52,361.22Z" style="fill:#ebebeb"></path><path d="M46.74,383.2v37.2a22.62,22.62,0,0,0,8.32,17.52h0a22.6,22.6,0,0,0,22.83,3.42L159.81,405l-8-27.33-65.9,21.73L86,382.5Z" style="fill:#ffbe9d"></path><path d="M148.56,380.64l5.56-6.89a19.25,19.25,0,0,1,15-7.17H174l3.31,3.72s23.74,1,24.61,4l0,.95,0,.55-20.31,1.36s17.28-.05,18.31,0,4.82-.29,4.74,1.74c-.06,1.66-2,3-5,3.41-1.22.18-16.18,1.48-16.18,1.48l16.46-.15c1.85,0,1.62,3,.52,3.32-.87.29-22,6.45-22,6.45s3.55,2.38,6.44,2.17,7.86-3.93,8.89-2.17.83,2.79.21,3.21a74.06,74.06,0,0,1-9.72,4.54c-2.27.63-20.85,3.57-20.85,3.57l-6.7,1.07Z" style="fill:#ffbe9d"></path><path d="M223.43,360.58s3.67,1.28,1.81,6a40.4,40.4,0,0,1-7.45,11.79,4.33,4.33,0,0,1-1.47,4.23s2.6.65,1,5a4.94,4.94,0,0,1-3.09,6.5s1.3,3.74-3.41,5.53-9.26-1.3-9.26-1.3Z" style="fill:#ffbe9d"></path><path d="M216,378c-3.34.9-7,1.62-10.09,2.79-1,.39-2,.41-2.7,1.26a2.33,2.33,0,0,0-.06,3,3.22,3.22,0,0,0,2.72.55,48,48,0,0,0,10.34-2.86" style="fill:#ffbe9d"></path><path d="M214.65,383.58c-3.33.9-7,1.62-10.08,2.79-1,.38-2,.4-2.7,1.26a2.31,2.31,0,0,0-.06,3,3.25,3.25,0,0,0,2.72.55,47.42,47.42,0,0,0,10.34-2.87" style="fill:#ffbe9d"></path><path d="M212.76,389.31c-3.34.9-7,1.62-10.09,2.79-1,.38-2,.4-2.69,1.26a2.3,2.3,0,0,0-.06,3,3.22,3.22,0,0,0,2.71.55A47.42,47.42,0,0,0,213,394" style="fill:#ffbe9d"></path><path d="M216,382.83c-.05-.14-2.41.69-5.36,1.51s-5.4,1.34-5.37,1.49a20.26,20.26,0,0,0,5.51-1A20,20,0,0,0,216,382.83Z" style="fill:#eb996e"></path><path d="M216.62,387.74c-.05-.14-2.75.76-6.1,1.74a62.81,62.81,0,0,0-6.08,1.84,28.83,28.83,0,0,0,6.22-1.34A28,28,0,0,0,216.62,387.74Z" style="fill:#eb996e"></path><path d="M214.43,394.06a32.56,32.56,0,0,0-5.73,1.17,33,33,0,0,0-5.61,1.67,33.7,33.7,0,0,0,5.74-1.17A32.33,32.33,0,0,0,214.43,394.06Z" style="fill:#eb996e"></path><path d="M218.76,377.33c0-.14-3,.86-6.73,1.81s-6.78,1.53-6.76,1.68a7.16,7.16,0,0,0,2-.17c1.25-.19,3-.52,4.85-1s3.53-1,4.72-1.47A7.44,7.44,0,0,0,218.76,377.33Z" style="fill:#eb996e"></path><path d="M185.35,370.59a66.08,66.08,0,0,0-8.33-.31,65.93,65.93,0,0,0-8.33.22,67.35,67.35,0,0,0,8.33.3A67.19,67.19,0,0,0,185.35,370.59Z" style="fill:#eb996e"></path><path d="M90.18,398.47a2.36,2.36,0,0,0-.81.09,17.92,17.92,0,0,0-2.15.55,24.56,24.56,0,0,0-11.87,8.23,17.84,17.84,0,0,0-1.26,1.82,2.38,2.38,0,0,0-.37.73c.08.05.71-.91,1.92-2.31A28.7,28.7,0,0,1,81,402.76a29.21,29.21,0,0,1,6.37-3.31C89.08,398.82,90.2,398.56,90.18,398.47Z" style="fill:#eb996e"></path></g><g id="freepik--Plant--inject-77"><path d="M389.29,381.31c-3.55,3.63-8.92,1.36-11.1-1.58s-2.69-6.75-3.11-10.38c-1-8.29-1.92-17,1.1-24.77a13.68,13.68,0,0,1,4.18-6.09,7.13,7.13,0,0,1,7.05-1.13c2.7,1.2,4,4.25,4.84,7.09a58.73,58.73,0,0,1,1.64,25.79c-.64,4-1.8,8.13-4.6,11.07" style="fill:#0F773C"></path><g style="opacity:0.2"><path d="M389.29,381.31c-3.55,3.63-8.92,1.36-11.1-1.58s-2.69-6.75-3.11-10.38c-1-8.29-1.92-17,1.1-24.77a13.68,13.68,0,0,1,4.18-6.09,7.13,7.13,0,0,1,7.05-1.13c2.7,1.2,4,4.25,4.84,7.09a58.73,58.73,0,0,1,1.64,25.79c-.64,4-1.8,8.13-4.6,11.07"></path></g><path d="M375.09,400.35c-4.3-3.2-9.79-4.42-15.16-4.42-2.88,0-5.94.37-8.2,2.16s-3.23,5.45-1.33,7.62a7.44,7.44,0,0,0,4.62,2c4.1.62,8.75.65,11.61,3.65,1.64,1.71,2.5,4.24,4.61,5.3a5.34,5.34,0,0,0,6.22-1.63,9.15,9.15,0,0,0,1.75-6.54A10.29,10.29,0,0,0,375.09,400.35Z" style="fill:#0F773C"></path><path d="M396.22,388.5c-2.51-4.22-2.22-9.73-.07-14.14s5.94-7.86,10.09-10.49a44.54,44.54,0,0,1,16-6.22,16,16,0,0,1,6.75,0,7,7,0,0,1,5,4.24c1.05,3.18-1,6.49-3.07,9.13a112,112,0,0,1-12,13c-3.48,3.23-7.37,6.34-12,7.3s-9.17,0-11-3.4" style="fill:#0F773C"></path><path d="M379.32,443.33a8.19,8.19,0,0,1,0-1.91c.09-1.38.21-3.11.34-5.17a73.12,73.12,0,0,0,.08-7.67,58,58,0,0,0-1.27-9.27,33,33,0,0,0-3.19-8.72,17.12,17.12,0,0,0-4.92-5.67,16.36,16.36,0,0,0-4.56-2.28,9.6,9.6,0,0,1-1.81-.57,8.55,8.55,0,0,1,1.9.28,14.67,14.67,0,0,1,4.78,2.12,17,17,0,0,1,5.23,5.76,32.13,32.13,0,0,1,3.33,8.91,54.07,54.07,0,0,1,1.23,9.41,63.36,63.36,0,0,1-.25,7.73c-.19,2.19-.42,4-.59,5.17A9.28,9.28,0,0,1,379.32,443.33Z" style="fill:#263238"></path><path d="M379.61,439.35a3.18,3.18,0,0,1,.09-.87c.11-.65.25-1.47.41-2.48.36-2.15.87-5.26,1.39-9.12,1.07-7.72,2.14-18.44,2.78-30.31s.64-22.64.32-30.43c-.06-1.94-.15-3.7-.26-5.25s-.16-2.87-.26-4-.14-1.84-.19-2.5a4.51,4.51,0,0,1,0-.88,3.2,3.2,0,0,1,.17.86q.13,1,.33,2.49c.15,1.08.27,2.42.4,4s.28,3.31.37,5.26a284.76,284.76,0,0,1-.09,30.49c-.64,11.9-1.8,22.63-3,30.35-.58,3.86-1.18,7-1.63,9.1-.22,1-.41,1.81-.56,2.45A3.79,3.79,0,0,1,379.61,439.35Z" style="fill:#263238"></path><path d="M382.92,418.82a17.17,17.17,0,0,1,.45-2.58,69.8,69.8,0,0,1,1.94-6.88,93.87,93.87,0,0,1,3.95-9.85,92.76,92.76,0,0,1,6.26-11.39,65.25,65.25,0,0,1,15.75-17.48,33.78,33.78,0,0,1,3.4-2.26c.52-.31,1-.62,1.44-.86l1.27-.6a16.78,16.78,0,0,1,2.41-1c.1.19-3.42,1.56-8.19,5.2a69,69,0,0,0-15.42,17.47,95.84,95.84,0,0,0-6.26,11.27,104.2,104.2,0,0,0-4.09,9.72c-1,2.82-1.71,5.15-2.17,6.77A14.86,14.86,0,0,1,382.92,418.82Z" style="fill:#263238"></path><path d="M372.07,428.82h18.5a12.29,12.29,0,0,1,12.29,12.29v30.79a0,0,0,0,1,0,0H359.78a0,0,0,0,1,0,0V441.11A12.29,12.29,0,0,1,372.07,428.82Z" transform="translate(762.65 900.71) rotate(180)" style="fill:#0F773C"></path><path d="M373.76,428.93a4.28,4.28,0,0,0,.49,1.28,22.86,22.86,0,0,0,1.91,3.19,25.8,25.8,0,0,0,21.18,10.81,21.4,21.4,0,0,0,3.71-.33,4.35,4.35,0,0,0,1.32-.34c0-.14-1.93.24-5,.14a27.14,27.14,0,0,1-20.76-10.6C374.7,430.64,373.88,428.87,373.76,428.93Z" style="fill:#fafafa"></path><path d="M360.19,457.93a4.39,4.39,0,0,0,1.4-.3,16,16,0,0,0,3.54-1.59,18.29,18.29,0,0,0,7.78-22.49,16.5,16.5,0,0,0-1.8-3.44c-.53-.75-.88-1.12-.92-1.09a36.54,36.54,0,0,1,2.22,4.72,18.5,18.5,0,0,1-7.56,21.84A37.82,37.82,0,0,1,360.19,457.93Z" style="fill:#fafafa"></path><path d="M371.23,470.7a25.75,25.75,0,0,1,.9-6.36,19.7,19.7,0,0,1,3.21-6.12,22.13,22.13,0,0,1,6.38-5.54,24.37,24.37,0,0,1,14.94-2.88,50.87,50.87,0,0,1,6.31,1.39,6.61,6.61,0,0,0-1.59-.73,23.39,23.39,0,0,0-4.65-1.19A23.92,23.92,0,0,0,381.34,452a21.91,21.91,0,0,0-6.55,5.78,19.28,19.28,0,0,0-3.17,6.39A16.06,16.06,0,0,0,371,469,6,6,0,0,0,371.23,470.7Z" style="fill:#fafafa"></path></g></svg>